<svg width="100%" viewBox="0 0 500 310" xmlns="http://www.w3.org/2000/svg" font-family="sans-serif">
  <rect width="500" height="310" fill="white"/>
  <defs>
    <marker id="arr" viewBox="0 0 10 10" refX="8" refY="5" markerWidth="5" markerHeight="5" orient="auto">
      <path d="M2 1L8 5L2 9" fill="none" stroke="#bbb" stroke-width="1.5" stroke-linecap="round" stroke-linejoin="round"/>
    </marker>
  </defs>

  <!-- Headers -->
  <text x="65" y="26" text-anchor="middle" font-size="12" fill="#777">índice</text>
  <text x="210" y="26" text-anchor="middle" font-size="12" fill="#777">contenido</text>

  <!-- [0] empty -->
  <rect x="25" y="38" width="80" height="40" rx="6" fill="#eeede8" stroke="#c8c7bf" stroke-width="0.5"/>
  <text x="65" y="63" text-anchor="middle" font-size="13" fill="#555" font-weight="500">[0]</text>
  <rect x="120" y="38" width="180" height="40" rx="6" fill="#eeede8" stroke="#c8c7bf" stroke-width="0.5"/>
  <text x="210" y="63" text-anchor="middle" font-size="13" fill="#aaa">—</text>

  <!-- [1] teal -->
  <rect x="25" y="90" width="80" height="40" rx="6" fill="#eeede8" stroke="#c8c7bf" stroke-width="0.5"/>
  <text x="65" y="115" text-anchor="middle" font-size="13" fill="#555" font-weight="500">[1]</text>
  <rect x="120" y="90" width="180" height="40" rx="6" fill="#1D9E75" stroke="#0F6E56" stroke-width="0.5"/>
  <text x="210" y="115" text-anchor="middle" font-size="13" fill="white">("edad", 29)</text>

  <!-- [2] purple -->
  <rect x="25" y="142" width="80" height="40" rx="6" fill="#eeede8" stroke="#c8c7bf" stroke-width="0.5"/>
  <text x="65" y="167" text-anchor="middle" font-size="13" fill="#555" font-weight="500">[2]</text>
  <rect x="120" y="142" width="180" height="40" rx="6" fill="#7F77DD" stroke="#534AB7" stroke-width="0.5"/>
  <text x="210" y="167" text-anchor="middle" font-size="13" fill="white">("nombre", "Ana")</text>

  <!-- [3] amber (displaced) -->
  <rect x="25" y="194" width="80" height="40" rx="6" fill="#eeede8" stroke="#c8c7bf" stroke-width="0.5"/>
  <text x="65" y="219" text-anchor="middle" font-size="13" fill="#555" font-weight="500">[3]</text>
  <rect x="120" y="194" width="180" height="40" rx="6" fill="#BA7517" stroke="#854F0B" stroke-width="0.5"/>
  <text x="210" y="219" text-anchor="middle" font-size="13" fill="white">("mail", "a@b.com")</text>

  <!-- Displacement label + arrow -->
  <line x1="356" y1="214" x2="303" y2="214" stroke="#ccc" stroke-width="1" marker-end="url(#arr)"/>
  <text x="362" y="204" font-size="11" fill="#999">hash→[2]</text>
  <text x="362" y="218" font-size="11" fill="#999">ocupado,</text>
  <text x="362" y="232" font-size="11" fill="#999">va a [3]</text>

  <!-- [4] teal -->
  <rect x="25" y="246" width="80" height="40" rx="6" fill="#eeede8" stroke="#c8c7bf" stroke-width="0.5"/>
  <text x="65" y="271" text-anchor="middle" font-size="13" fill="#555" font-weight="500">[4]</text>
  <rect x="120" y="246" width="180" height="40" rx="6" fill="#1D9E75" stroke="#0F6E56" stroke-width="0.5"/>
  <text x="210" y="271" text-anchor="middle" font-size="13" fill="white">("ciudad", "BsAs")</text>
</svg>
