<svg xmlns="http://www.w3.org/2000/svg" viewBox="0 0 210.78 201.00" width="210" height="201" role="img">
<g transform="translate(112.33,126.00)">
<polygon points="-29.44,17.00 0.00,34.00 0.00,-0.00 -29.44,-17.00" fill="#e9ecf1" stroke="#111" stroke-width="1.6" stroke-linejoin="round"/>
<polygon points="29.44,17.00 0.00,34.00 0.00,-0.00 29.44,-17.00" fill="#acb0b6" stroke="#111" stroke-width="1.6" stroke-linejoin="round"/>
<polygon points="0.00,-34.00 29.44,-17.00 0.00,-0.00 -29.44,-17.00" fill="#ffffff" stroke="#111" stroke-width="1.6" stroke-linejoin="round"/>
<polygon points="-58.89,34.00 -29.44,51.00 -29.44,17.00 -58.89,-0.00" fill="#e9ecf1" stroke="#111" stroke-width="1.6" stroke-linejoin="round"/>
<polygon points="0.00,34.00 -29.44,51.00 -29.44,17.00 0.00,-0.00" fill="#acb0b6" stroke="#111" stroke-width="1.6" stroke-linejoin="round"/>
<polygon points="-29.44,-17.00 0.00,-0.00 -29.44,17.00 -58.89,-0.00" fill="#ffffff" stroke="#111" stroke-width="1.6" stroke-linejoin="round"/>
<polygon points="0.00,34.00 29.44,51.00 29.44,17.00 0.00,-0.00" fill="#e9ecf1" stroke="#111" stroke-width="1.6" stroke-linejoin="round"/>
<polygon points="58.89,34.00 29.44,51.00 29.44,17.00 58.89,-0.00" fill="#194c9a" stroke="#111" stroke-width="1.6" stroke-linejoin="round"/>
<polygon points="29.44,-17.00 58.89,-0.00 29.44,17.00 0.00,-0.00" fill="#ffffff" stroke="#111" stroke-width="1.6" stroke-linejoin="round"/>
<polygon points="-29.44,-17.00 0.00,-0.00 0.00,-34.00 -29.44,-51.00" fill="#e9ecf1" stroke="#111" stroke-width="1.6" stroke-linejoin="round"/>
<polygon points="29.44,-17.00 0.00,-0.00 0.00,-34.00 29.44,-51.00" fill="#acb0b6" stroke="#111" stroke-width="1.6" stroke-linejoin="round"/>
<polygon points="0.00,-68.00 29.44,-51.00 0.00,-34.00 -29.44,-51.00" fill="#ffffff" stroke="#111" stroke-width="1.6" stroke-linejoin="round"/>
<polygon points="-88.33,51.00 -58.89,68.00 -58.89,34.00 -88.33,17.00" fill="#e9ecf1" stroke="#111" stroke-width="1.6" stroke-linejoin="round"/>
<polygon points="-29.44,51.00 -58.89,68.00 -58.89,34.00 -29.44,17.00" fill="#acb0b6" stroke="#111" stroke-width="1.6" stroke-linejoin="round"/>
<polygon points="-58.89,-0.00 -29.44,17.00 -58.89,34.00 -88.33,17.00" fill="#ffffff" stroke="#111" stroke-width="1.6" stroke-linejoin="round"/>
<polygon points="-29.44,51.00 0.00,68.00 0.00,34.00 -29.44,17.00" fill="#e9ecf1" stroke="#111" stroke-width="1.6" stroke-linejoin="round"/>
<polygon points="29.44,51.00 0.00,68.00 0.00,34.00 29.44,17.00" fill="#acb0b6" stroke="#111" stroke-width="1.6" stroke-linejoin="round"/>
<polygon points="0.00,-0.00 29.44,17.00 0.00,34.00 -29.44,17.00" fill="#ffffff" stroke="#111" stroke-width="1.6" stroke-linejoin="round"/>
<polygon points="29.44,51.00 58.89,68.00 58.89,34.00 29.44,17.00" fill="#e9ecf1" stroke="#111" stroke-width="1.6" stroke-linejoin="round"/>
<polygon points="88.33,51.00 58.89,68.00 58.89,34.00 88.33,17.00" fill="#acb0b6" stroke="#111" stroke-width="1.6" stroke-linejoin="round"/>
<polygon points="58.89,-0.00 88.33,17.00 58.89,34.00 29.44,17.00" fill="#ffffff" stroke="#111" stroke-width="1.6" stroke-linejoin="round"/>
<polygon points="-58.89,-0.00 -29.44,17.00 -29.44,-17.00 -58.89,-34.00" fill="#e9ecf1" stroke="#111" stroke-width="1.6" stroke-linejoin="round"/>
<polygon points="0.00,-0.00 -29.44,17.00 -29.44,-17.00 0.00,-34.00" fill="#acb0b6" stroke="#111" stroke-width="1.6" stroke-linejoin="round"/>
<polygon points="-29.44,-51.00 0.00,-34.00 -29.44,-17.00 -58.89,-34.00" fill="#ffffff" stroke="#111" stroke-width="1.6" stroke-linejoin="round"/>
<polygon points="0.00,-0.00 29.44,17.00 29.44,-17.00 0.00,-34.00" fill="#e9ecf1" stroke="#111" stroke-width="1.6" stroke-linejoin="round"/>
<polygon points="58.89,-0.00 29.44,17.00 29.44,-17.00 58.89,-34.00" fill="#acb0b6" stroke="#111" stroke-width="1.6" stroke-linejoin="round"/>
<polygon points="29.44,-51.00 58.89,-34.00 29.44,-17.00 0.00,-34.00" fill="#ffffff" stroke="#111" stroke-width="1.6" stroke-linejoin="round"/>
<polygon points="-29.44,-51.00 0.00,-34.00 0.00,-68.00 -29.44,-85.00" fill="#e9ecf1" stroke="#111" stroke-width="1.6" stroke-linejoin="round"/>
<polygon points="29.44,-51.00 0.00,-34.00 0.00,-68.00 29.44,-85.00" fill="#acb0b6" stroke="#111" stroke-width="1.6" stroke-linejoin="round"/>
<polygon points="0.00,-102.00 29.44,-85.00 0.00,-68.00 -29.44,-85.00" fill="#ffffff" stroke="#111" stroke-width="1.6" stroke-linejoin="round"/>
</g>
</svg>
