<svg xmlns="http://www.w3.org/2000/svg" viewBox="0 95 430 205" width="430" height="205" font-family="ui-sans-serif,-apple-system,Segoe UI,Roboto,Helvetica,Arial,sans-serif" role="img"><g transform="translate(250,150)"><polygon points="-29.44,17.00 0.00,34.00 0.00,0.00 -29.44,-17.00" fill="#9db6de" stroke="#111" stroke-width="1.6" stroke-linejoin="round"/><polygon points="29.44,17.00 0.00,34.00 0.00,0.00 29.44,-17.00" fill="#6d8cc0" stroke="#111" stroke-width="1.6" stroke-linejoin="round"/><polygon points="0.00,-34.00 29.44,-17.00 0.00,0.00 -29.44,-17.00" fill="#c0d2ee" stroke="#111" stroke-width="1.6" stroke-linejoin="round"/><polygon points="0.00,34.00 29.44,51.00 29.44,17.00 0.00,0.00" fill="#c3d3ec" stroke="#111" stroke-width="1.6" stroke-linejoin="round"/><polygon points="58.88,34.00 29.44,51.00 29.44,17.00 58.88,0.00" fill="#8aa3ce" stroke="#111" stroke-width="1.6" stroke-linejoin="round"/><polygon points="29.44,-17.00 58.88,0.00 29.44,17.00 0.00,0.00" fill="#dbe6f6" stroke="#111" stroke-width="1.6" stroke-linejoin="round"/><polygon points="-58.88,34.00 -29.44,51.00 -29.44,17.00 -58.88,0.00" fill="#c3d3ec" stroke="#111" stroke-width="1.6" stroke-linejoin="round"/><polygon points="0.00,34.00 -29.44,51.00 -29.44,17.00 0.00,0.00" fill="#8aa3ce" stroke="#111" stroke-width="1.6" stroke-linejoin="round"/><polygon points="-29.44,-17.00 0.00,0.00 -29.44,17.00 -58.88,0.00" fill="#dbe6f6" stroke="#111" stroke-width="1.6" stroke-linejoin="round"/><polygon points="29.44,51.00 58.88,68.00 58.88,34.00 29.44,17.00" fill="#dfe8f5" stroke="#111" stroke-width="1.6" stroke-linejoin="round"/><polygon points="88.32,51.00 58.88,68.00 58.88,34.00 88.32,17.00" fill="#a9bcdd" stroke="#111" stroke-width="1.6" stroke-linejoin="round"/><polygon points="58.88,0.00 88.32,17.00 58.88,34.00 29.44,17.00" fill="#eff4fb" stroke="#111" stroke-width="1.6" stroke-linejoin="round"/><polygon points="-29.44,51.00 0.00,68.00 0.00,34.00 -29.44,17.00" fill="#dfe8f5" stroke="#111" stroke-width="1.6" stroke-linejoin="round"/><polygon points="29.44,51.00 0.00,68.00 0.00,34.00 29.44,17.00" fill="#a9bcdd" stroke="#111" stroke-width="1.6" stroke-linejoin="round"/><polygon points="0.00,0.00 29.44,17.00 0.00,34.00 -29.44,17.00" fill="#eff4fb" stroke="#111" stroke-width="1.6" stroke-linejoin="round"/><polygon points="-88.32,51.00 -58.88,68.00 -58.88,34.00 -88.32,17.00" fill="#dfe8f5" stroke="#111" stroke-width="1.6" stroke-linejoin="round"/><polygon points="-29.44,51.00 -58.88,68.00 -58.88,34.00 -29.44,17.00" fill="#a9bcdd" stroke="#111" stroke-width="1.6" stroke-linejoin="round"/><polygon points="-58.88,0.00 -29.44,17.00 -58.88,34.00 -88.32,17.00" fill="#eff4fb" stroke="#111" stroke-width="1.6" stroke-linejoin="round"/></g><text x="215" y="270" font-size="20" fill="#194c9a" font-weight="700" text-anchor="middle">1 + 2 + 3  =  6</text><text x="215" y="292" font-size="13" fill="#555" font-weight="400" text-anchor="middle">T(K) = K(K+1)/2   →   T(3) = 3·4/2 = 6</text></svg>